<svg width="24" height="24" viewBox="0 0 24 24" fill="none" xmlns="http://www.w3.org/2000/svg">
<g id="scatter_plot_24px">
<path id="icon/editor/scatter_plot_24px" fill-rule="evenodd" clip-rule="evenodd" d="M11.2 3.2C9.54315 3.2 8.20001 4.54314 8.20001 6.2C8.20001 7.85685 9.54315 9.2 11.2 9.2C12.8569 9.2 14.2 7.85685 14.2 6.2C14.2 4.54314 12.8569 3.2 11.2 3.2ZM7.20001 11.2C6.1282 11.2 5.13785 11.7718 4.60193 12.7C4.06604 13.6282 4.06604 14.7718 4.60193 15.7C5.13785 16.6282 6.1282 17.2 7.20001 17.2C8.27182 17.2 9.26218 16.6282 9.7981 15.7C10.334 14.7718 10.334 13.6282 9.7981 12.7C9.26218 11.7718 8.27182 11.2 7.20001 11.2ZM13.8 17.8C13.8 16.1431 15.1432 14.8 16.8 14.8C18.4569 14.8 19.8 16.1431 19.8 17.8C19.8 19.4568 18.4569 20.8 16.8 20.8C15.1432 20.8 13.8 19.4568 13.8 17.8Z" fill="black" fill-opacity="0.54"/>
</g>
</svg>
